<svg width="27" height="8" viewBox="0 0 27 8" fill="none" xmlns="http://www.w3.org/2000/svg">
<path d="M1.056 2.1615L1.122 2.0405H2.618L2.6565 2.1615H1.056ZM3.8995 3.531C3.91783 3.531 3.927 3.542 3.927 3.564C3.927 3.586 3.91783 3.597 3.8995 3.597C3.79317 3.597 3.68317 3.59333 3.5695 3.586C3.4595 3.57867 3.35133 3.575 3.245 3.575C3.12767 3.575 3.025 3.57867 2.937 3.586C2.85267 3.59333 2.75733 3.597 2.651 3.597C2.63633 3.597 2.629 3.586 2.629 3.564C2.629 3.542 2.63633 3.531 2.651 3.531C2.83067 3.531 2.94067 3.5035 2.981 3.4485C3.02133 3.38983 3.00117 3.27617 2.9205 3.1075L1.738 0.649L1.914 0.385L0.8415 2.871C0.746167 3.09467 0.740667 3.2615 0.825 3.3715C0.909333 3.47783 1.067 3.531 1.298 3.531C1.31633 3.531 1.3255 3.542 1.3255 3.564C1.3255 3.586 1.31633 3.597 1.298 3.597C1.188 3.597 1.08717 3.59333 0.9955 3.586C0.903833 3.57867 0.788333 3.575 0.649 3.575C0.513333 3.575 0.403333 3.57867 0.319 3.586C0.238333 3.59333 0.139333 3.597 0.022 3.597C0.00733333 3.597 0 3.586 0 3.564C0 3.542 0.00733333 3.531 0.022 3.531C0.121 3.531 0.207167 3.51267 0.2805 3.476C0.353833 3.43567 0.4235 3.36417 0.4895 3.2615C0.559167 3.15883 0.634333 3.01217 0.715 2.8215L1.8865 0.121C1.89017 0.11 1.903 0.1045 1.925 0.1045C1.947 0.100833 1.95983 0.106333 1.9635 0.121L3.2835 2.8435C3.3715 3.02317 3.44667 3.16433 3.509 3.267C3.575 3.366 3.63917 3.43567 3.7015 3.476C3.76383 3.51267 3.82983 3.531 3.8995 3.531Z" fill="#8B6B3F"/>
<path d="M5.6818 2.97V0.286L5.8248 0.297V2.97C5.8248 3.16067 5.85963 3.30183 5.9293 3.3935C5.99897 3.48517 6.10897 3.531 6.2593 3.531C6.26663 3.531 6.2703 3.542 6.2703 3.564C6.2703 3.586 6.26663 3.597 6.2593 3.597C6.1823 3.597 6.10347 3.59517 6.0228 3.5915C5.9458 3.58783 5.8578 3.586 5.7588 3.586C5.66347 3.586 5.56997 3.58783 5.4783 3.5915C5.38663 3.59517 5.30047 3.597 5.2198 3.597C5.21247 3.597 5.2088 3.586 5.2088 3.564C5.2088 3.542 5.21247 3.531 5.2198 3.531C5.38113 3.531 5.49847 3.48517 5.5718 3.3935C5.64513 3.30183 5.6818 3.16067 5.6818 2.97ZM8.4648 3.6685C8.4648 3.67583 8.45563 3.6795 8.4373 3.6795C8.42263 3.68317 8.41163 3.68317 8.4043 3.6795L5.8138 0.6105C5.68547 0.460167 5.57363 0.359333 5.4783 0.308C5.38663 0.253 5.29497 0.2255 5.2033 0.2255C5.19597 0.2255 5.1923 0.2145 5.1923 0.1925C5.1923 0.1705 5.19597 0.1595 5.2033 0.1595C5.27297 0.1595 5.34263 0.161334 5.4123 0.165C5.48197 0.168667 5.54613 0.1705 5.6048 0.1705C5.6928 0.1705 5.77347 0.168667 5.8468 0.165C5.92013 0.161334 5.97513 0.1595 6.0118 0.1595C6.05947 0.1595 6.0943 0.1815 6.1163 0.2255C6.1383 0.265833 6.19147 0.339167 6.2758 0.4455L8.4208 3.0305L8.4648 3.6685ZM8.4648 0.792V3.6685L8.3273 3.498V0.792C8.3273 0.601333 8.29247 0.460167 8.2228 0.3685C8.1568 0.273167 8.04863 0.2255 7.8983 0.2255C7.89097 0.2255 7.8873 0.2145 7.8873 0.1925C7.8873 0.1705 7.89097 0.1595 7.8983 0.1595C7.9753 0.1595 8.05413 0.163167 8.1348 0.1705C8.21547 0.174167 8.30347 0.176 8.3988 0.176C8.49047 0.176 8.5803 0.174167 8.6683 0.1705C8.7563 0.163167 8.8388 0.1595 8.9158 0.1595C8.92313 0.1595 8.9268 0.1705 8.9268 0.1925C8.9268 0.2145 8.92313 0.2255 8.9158 0.2255C8.7618 0.2255 8.64813 0.273167 8.5748 0.3685C8.50147 0.460167 8.4648 0.601333 8.4648 0.792Z" fill="#8B6B3F"/>
<path d="M11.2229 0.2695C10.9955 0.2695 10.8177 0.333667 10.6894 0.462C10.561 0.586667 10.4657 0.788333 10.4034 1.067C10.3997 1.07433 10.3869 1.078 10.3649 1.078C10.3465 1.078 10.3374 1.0725 10.3374 1.0615C10.3447 1.01383 10.352 0.946 10.3594 0.858C10.3704 0.77 10.3795 0.674667 10.3869 0.572C10.3942 0.469333 10.3997 0.370333 10.4034 0.275C10.4107 0.179667 10.4144 0.100833 10.4144 0.0385002C10.4144 0.0201668 10.4254 0.0110002 10.4474 0.0110002C10.4694 0.0110002 10.4804 0.0201668 10.4804 0.0385002C10.4804 0.0751668 10.4987 0.102667 10.5354 0.121C10.572 0.135667 10.6142 0.146667 10.6619 0.154C10.7095 0.157667 10.7499 0.1595 10.7829 0.1595C11.0982 0.1705 11.4667 0.176 11.8884 0.176C12.145 0.176 12.3504 0.174167 12.5044 0.1705C12.6584 0.163167 12.8069 0.1595 12.9499 0.1595C13.0745 0.1595 13.1699 0.152167 13.2359 0.1375C13.3055 0.119167 13.3495 0.0806668 13.3679 0.022C13.3715 0.00733335 13.3825 0 13.4009 0C13.4229 0 13.4339 0.00733335 13.4339 0.022C13.4265 0.077 13.4192 0.154 13.4119 0.253C13.4082 0.352 13.4027 0.454667 13.3954 0.561C13.3917 0.667333 13.388 0.766334 13.3844 0.858C13.3807 0.949667 13.3789 1.0175 13.3789 1.0615C13.3789 1.0725 13.3679 1.078 13.3459 1.078C13.3275 1.078 13.3184 1.0725 13.3184 1.0615C13.2927 0.7755 13.2194 0.572 13.0984 0.451C12.9774 0.33 12.7977 0.2695 12.5594 0.2695C12.431 0.2695 12.3339 0.278667 12.2679 0.297C12.2055 0.311667 12.1634 0.342834 12.1414 0.3905C12.123 0.438167 12.1139 0.513333 12.1139 0.616V3.1515C12.1139 3.25783 12.1249 3.3385 12.1469 3.3935C12.1725 3.4485 12.2202 3.48517 12.2899 3.5035C12.3632 3.52183 12.475 3.531 12.6254 3.531C12.6327 3.531 12.6364 3.542 12.6364 3.564C12.6364 3.586 12.6327 3.597 12.6254 3.597C12.5264 3.597 12.4145 3.59517 12.2899 3.5915C12.1689 3.58783 12.035 3.586 11.8884 3.586C11.749 3.586 11.617 3.58783 11.4924 3.5915C11.3714 3.59517 11.2595 3.597 11.1569 3.597C11.1459 3.597 11.1404 3.586 11.1404 3.564C11.1404 3.542 11.1459 3.531 11.1569 3.531C11.2999 3.531 11.408 3.52183 11.4814 3.5035C11.5584 3.48517 11.6097 3.4485 11.6354 3.3935C11.661 3.3385 11.6739 3.25783 11.6739 3.1515V0.605C11.6739 0.506 11.6629 0.432667 11.6409 0.385C11.6189 0.333667 11.5749 0.3025 11.5089 0.2915C11.4429 0.276833 11.3475 0.2695 11.2229 0.2695Z" fill="#8B6B3F"/>
<path d="M15.8743 3.1515C15.8743 3.25783 15.8835 3.3385 15.9018 3.3935C15.9238 3.4485 15.966 3.48517 16.0283 3.5035C16.0943 3.52183 16.1915 3.531 16.3198 3.531C16.3272 3.531 16.3308 3.542 16.3308 3.564C16.3308 3.586 16.3272 3.597 16.3198 3.597C16.2282 3.597 16.1255 3.59517 16.0118 3.5915C15.9018 3.58783 15.7808 3.586 15.6488 3.586C15.5205 3.586 15.3995 3.58783 15.2858 3.5915C15.1722 3.59517 15.0695 3.597 14.9778 3.597C14.9705 3.597 14.9668 3.586 14.9668 3.564C14.9668 3.542 14.9705 3.531 14.9778 3.531C15.1062 3.531 15.2033 3.52183 15.2693 3.5035C15.3353 3.48517 15.3793 3.4485 15.4013 3.3935C15.4233 3.3385 15.4343 3.25783 15.4343 3.1515V0.605C15.4343 0.498667 15.4233 0.419833 15.4013 0.3685C15.3793 0.3135 15.3353 0.276833 15.2693 0.2585C15.2033 0.2365 15.1062 0.2255 14.9778 0.2255C14.9705 0.2255 14.9668 0.2145 14.9668 0.1925C14.9668 0.1705 14.9705 0.1595 14.9778 0.1595C15.0695 0.1595 15.1722 0.163167 15.2858 0.1705C15.3995 0.174167 15.5205 0.176 15.6488 0.176C15.7808 0.176 15.9037 0.174167 16.0173 0.1705C16.131 0.163167 16.2318 0.1595 16.3198 0.1595C16.3272 0.1595 16.3308 0.1705 16.3308 0.1925C16.3308 0.2145 16.3272 0.2255 16.3198 0.2255C16.1915 0.2255 16.0962 0.2365 16.0338 0.2585C15.9715 0.2805 15.9293 0.319 15.9073 0.374C15.8853 0.429 15.8743 0.509667 15.8743 0.616V3.1515Z" fill="#8B6B3F"/>
<path d="M19.9606 0.099C20.1 0.099 20.2283 0.106333 20.3456 0.121C20.4666 0.132 20.5785 0.152167 20.6811 0.1815C20.7875 0.210833 20.8883 0.249333 20.9836 0.297C21.013 0.308 21.0295 0.320833 21.0331 0.3355C21.0405 0.3465 21.046 0.374 21.0496 0.418L21.1211 1.111C21.1211 1.11833 21.1101 1.12567 21.0881 1.133C21.0698 1.13667 21.0588 1.13117 21.0551 1.1165C20.9635 0.812167 20.8241 0.583 20.6371 0.429C20.4501 0.271333 20.2118 0.1925 19.9221 0.1925C19.6288 0.1925 19.3721 0.260333 19.1521 0.396C18.9321 0.531667 18.7598 0.724167 18.6351 0.9735C18.5104 1.21917 18.4481 1.51067 18.4481 1.848C18.4481 2.09733 18.4866 2.3265 18.5636 2.5355C18.6406 2.7445 18.7469 2.92783 18.8826 3.0855C19.0219 3.2395 19.1814 3.35867 19.3611 3.443C19.5444 3.52733 19.7406 3.5695 19.9496 3.5695C20.243 3.5695 20.4794 3.49617 20.6591 3.3495C20.8425 3.20283 20.9891 2.97917 21.0991 2.6785C21.1065 2.6675 21.1193 2.66383 21.1376 2.6675C21.156 2.67117 21.1651 2.6785 21.1651 2.6895L21.1046 3.3165C21.1009 3.3605 21.0936 3.388 21.0826 3.399C21.0753 3.41 21.0588 3.42283 21.0331 3.4375C20.8461 3.52183 20.6665 3.5805 20.4941 3.6135C20.3255 3.65017 20.144 3.6685 19.9496 3.6685C19.561 3.6685 19.2144 3.59333 18.9101 3.443C18.6094 3.289 18.373 3.07817 18.2006 2.8105C18.0283 2.53917 17.9421 2.22567 17.9421 1.87C17.9421 1.606 17.9916 1.36583 18.0906 1.1495C18.1933 0.933167 18.3363 0.746167 18.5196 0.5885C18.703 0.430833 18.9156 0.309833 19.1576 0.2255C19.4033 0.141167 19.671 0.099 19.9606 0.099Z" fill="#8B6B3F"/>
<path d="M23.5609 2.1615L23.6269 2.0405H25.1229L25.1614 2.1615H23.5609ZM26.4044 3.531C26.4227 3.531 26.4319 3.542 26.4319 3.564C26.4319 3.586 26.4227 3.597 26.4044 3.597C26.298 3.597 26.188 3.59333 26.0744 3.586C25.9644 3.57867 25.8562 3.575 25.7499 3.575C25.6326 3.575 25.5299 3.57867 25.4419 3.586C25.3575 3.59333 25.2622 3.597 25.1559 3.597C25.1412 3.597 25.1339 3.586 25.1339 3.564C25.1339 3.542 25.1412 3.531 25.1559 3.531C25.3356 3.531 25.4456 3.5035 25.4859 3.4485C25.5262 3.38983 25.506 3.27617 25.4254 3.1075L24.2429 0.649L24.4189 0.385L23.3464 2.871C23.251 3.09467 23.2456 3.2615 23.3299 3.3715C23.4142 3.47783 23.5719 3.531 23.8029 3.531C23.8212 3.531 23.8304 3.542 23.8304 3.564C23.8304 3.586 23.8212 3.597 23.8029 3.597C23.6929 3.597 23.5921 3.59333 23.5004 3.586C23.4087 3.57867 23.2932 3.575 23.1539 3.575C23.0182 3.575 22.9082 3.57867 22.8239 3.586C22.7432 3.59333 22.6442 3.597 22.5269 3.597C22.5122 3.597 22.5049 3.586 22.5049 3.564C22.5049 3.542 22.5122 3.531 22.5269 3.531C22.6259 3.531 22.712 3.51267 22.7854 3.476C22.8587 3.43567 22.9284 3.36417 22.9944 3.2615C23.064 3.15883 23.1392 3.01217 23.2199 2.8215L24.3914 0.121C24.395 0.11 24.4079 0.1045 24.4299 0.1045C24.4519 0.100833 24.4647 0.106333 24.4684 0.121L25.7884 2.8435C25.8764 3.02317 25.9516 3.16433 26.0139 3.267C26.0799 3.366 26.144 3.43567 26.2064 3.476C26.2687 3.51267 26.3347 3.531 26.4044 3.531Z" fill="#8B6B3F"/>
<path d="M0.942187 7.312L0.967188 6.092L1.02969 6.097L1.00469 7.312C1.00302 7.39867 1.01802 7.46283 1.04969 7.5045C1.08302 7.54617 1.13802 7.567 1.21469 7.567C1.21969 7.567 1.22219 7.572 1.22219 7.582C1.22219 7.592 1.21969 7.597 1.21469 7.597C1.17802 7.597 1.14052 7.59617 1.10219 7.5945C1.06385 7.59283 1.02052 7.592 0.972188 7.592C0.927188 7.592 0.884688 7.59283 0.844688 7.5945C0.804688 7.59617 0.767188 7.597 0.732188 7.597C0.728854 7.597 0.727188 7.592 0.727188 7.582C0.727188 7.572 0.728854 7.567 0.732188 7.567C0.802188 7.567 0.853854 7.54617 0.887187 7.5045C0.922187 7.46283 0.940521 7.39867 0.942187 7.312ZM2.69219 7.567C2.69552 7.567 2.69719 7.572 2.69719 7.582C2.69719 7.592 2.69552 7.597 2.69219 7.597C2.65052 7.597 2.60385 7.59617 2.55219 7.5945C2.50052 7.59283 2.44552 7.592 2.38719 7.592C2.33219 7.592 2.28052 7.59283 2.23219 7.5945C2.18385 7.59617 2.14052 7.597 2.10219 7.597C2.09719 7.597 2.09469 7.592 2.09469 7.582C2.09469 7.572 2.09719 7.567 2.10219 7.567C2.18385 7.567 2.23635 7.55617 2.25969 7.5345C2.28302 7.51283 2.29219 7.46617 2.28719 7.3945L2.23719 6.217L2.33469 6.077L1.68719 7.5795C1.68552 7.58617 1.67885 7.5895 1.66719 7.5895C1.65719 7.5895 1.65052 7.58617 1.64719 7.5795L0.994687 6.242C0.936354 6.12367 0.854687 6.0645 0.749687 6.0645C0.746354 6.0645 0.744687 6.0595 0.744687 6.0495C0.744687 6.0395 0.746354 6.0345 0.749687 6.0345C0.779687 6.0345 0.810521 6.03533 0.842188 6.037C0.875521 6.03867 0.903854 6.0395 0.927188 6.0395C0.958854 6.0395 0.987187 6.03867 1.01219 6.037C1.03885 6.03533 1.05885 6.0345 1.07219 6.0345C1.09552 6.0345 1.11385 6.04283 1.12719 6.0595C1.14052 6.0745 1.16052 6.1095 1.18719 6.1645L1.75469 7.317L1.66219 7.477L2.26469 6.097C2.27302 6.077 2.28302 6.062 2.29469 6.052C2.30802 6.04033 2.32302 6.0345 2.33969 6.0345C2.35135 6.0345 2.36552 6.03533 2.38219 6.037C2.40052 6.03867 2.42135 6.0395 2.44469 6.0395C2.49135 6.0395 2.53052 6.03867 2.56219 6.037C2.59385 6.03533 2.62635 6.0345 2.65969 6.0345C2.66302 6.0345 2.66469 6.0395 2.66469 6.0495C2.66469 6.0595 2.66302 6.0645 2.65969 6.0645C2.57969 6.0645 2.52135 6.07783 2.48469 6.1045C2.44802 6.1295 2.43052 6.17617 2.43219 6.2445L2.48469 7.3945C2.48802 7.44283 2.49469 7.4795 2.50469 7.5045C2.51469 7.5295 2.53385 7.54617 2.56219 7.5545C2.59052 7.56283 2.63385 7.567 2.69219 7.567Z" fill="#8B6B3F"/>
<path d="M4.67918 6.322C4.67918 6.23867 4.66001 6.17533 4.62168 6.132C4.58501 6.087 4.53001 6.0645 4.45668 6.0645C4.45168 6.0645 4.44918 6.0595 4.44918 6.0495C4.44918 6.0395 4.45168 6.0345 4.45668 6.0345C4.49501 6.0345 4.53501 6.03617 4.57668 6.0395C4.61835 6.04117 4.66335 6.042 4.71168 6.042C4.75335 6.042 4.79418 6.04117 4.83418 6.0395C4.87585 6.03617 4.91418 6.0345 4.94918 6.0345C4.95251 6.0345 4.95418 6.0395 4.95418 6.0495C4.95418 6.0595 4.95251 6.0645 4.94918 6.0645C4.88251 6.0645 4.83168 6.087 4.79668 6.132C4.76335 6.17533 4.74668 6.23867 4.74668 6.322V7.0295C4.74668 7.1545 4.72168 7.262 4.67168 7.352C4.62168 7.442 4.55168 7.51117 4.46168 7.5595C4.37168 7.60617 4.26668 7.6295 4.14668 7.6295C4.02335 7.6295 3.91501 7.60617 3.82168 7.5595C3.72835 7.51117 3.65585 7.44283 3.60418 7.3545C3.55251 7.26617 3.52668 7.16117 3.52668 7.0395V6.237C3.52668 6.18867 3.52168 6.15283 3.51168 6.1295C3.50168 6.1045 3.48168 6.08783 3.45168 6.0795C3.42335 6.0695 3.38085 6.0645 3.32418 6.0645C3.31918 6.0645 3.31668 6.0595 3.31668 6.0495C3.31668 6.0395 3.31918 6.0345 3.32418 6.0345C3.36585 6.0345 3.41168 6.03617 3.46168 6.0395C3.51168 6.04117 3.56585 6.042 3.62418 6.042C3.68418 6.042 3.73918 6.04117 3.78918 6.0395C3.84085 6.03617 3.88585 6.0345 3.92418 6.0345C3.92918 6.0345 3.93168 6.0395 3.93168 6.0495C3.93168 6.0595 3.92918 6.0645 3.92418 6.0645C3.86751 6.0645 3.82418 6.0695 3.79418 6.0795C3.76585 6.0895 3.74668 6.107 3.73668 6.132C3.72835 6.157 3.72418 6.19367 3.72418 6.242V6.952C3.72418 7.152 3.76751 7.302 3.85418 7.402C3.94085 7.50033 4.06085 7.5495 4.21418 7.5495C4.36085 7.5495 4.47501 7.5045 4.55668 7.4145C4.63835 7.32283 4.67918 7.19533 4.67918 7.032V6.322Z" fill="#8B6B3F"/>
<path d="M5.8627 6.3145C5.8627 6.38117 5.87936 6.43867 5.9127 6.487C5.94603 6.53533 5.98936 6.57867 6.0427 6.617C6.09603 6.65367 6.1527 6.69033 6.2127 6.727C6.27436 6.76367 6.33353 6.80283 6.3902 6.8445C6.44853 6.88617 6.49603 6.93533 6.5327 6.992C6.57103 7.047 6.5902 7.1145 6.5902 7.1945C6.5902 7.27617 6.56853 7.3495 6.5252 7.4145C6.48353 7.4795 6.42353 7.53117 6.3452 7.5695C6.26853 7.60783 6.17603 7.627 6.0677 7.627C6.02436 7.627 5.9802 7.62283 5.9352 7.6145C5.89186 7.60783 5.8502 7.59783 5.8102 7.5845C5.7702 7.57117 5.73353 7.5545 5.7002 7.5345C5.69353 7.5295 5.6877 7.52367 5.6827 7.517C5.67936 7.51033 5.6777 7.50033 5.6777 7.487L5.6527 7.1295C5.65103 7.12117 5.65436 7.117 5.6627 7.117C5.6727 7.11533 5.67853 7.11783 5.6802 7.1245C5.6952 7.17617 5.7152 7.22867 5.7402 7.282C5.7652 7.33533 5.7952 7.3845 5.8302 7.4295C5.8652 7.47283 5.90686 7.50867 5.9552 7.537C6.0052 7.56533 6.0627 7.5795 6.1277 7.5795C6.1727 7.5795 6.21603 7.57117 6.2577 7.5545C6.30103 7.53783 6.33603 7.51033 6.3627 7.472C6.38936 7.432 6.4027 7.377 6.4027 7.307C6.4027 7.227 6.3852 7.1595 6.3502 7.1045C6.3152 7.0495 6.2702 7.002 6.2152 6.962C6.1602 6.922 6.10186 6.88367 6.0402 6.847C5.98186 6.81033 5.9252 6.772 5.8702 6.732C5.81686 6.692 5.77353 6.64617 5.7402 6.5945C5.70686 6.54117 5.6902 6.477 5.6902 6.402C5.6902 6.312 5.71353 6.23783 5.7602 6.1795C5.80853 6.12117 5.86936 6.07783 5.9427 6.0495C6.0177 6.02117 6.09436 6.007 6.1727 6.007C6.22436 6.007 6.27686 6.012 6.3302 6.022C6.38353 6.032 6.43186 6.04617 6.4752 6.0645C6.4902 6.07117 6.5002 6.07867 6.5052 6.087C6.5102 6.09367 6.5127 6.10117 6.5127 6.1095L6.5252 6.422C6.5252 6.427 6.52103 6.43033 6.5127 6.432C6.50436 6.43367 6.49853 6.43117 6.4952 6.4245C6.4902 6.39617 6.47936 6.36117 6.4627 6.3195C6.44603 6.27617 6.42353 6.2345 6.3952 6.1945C6.36686 6.15283 6.3302 6.11867 6.2852 6.092C6.24186 6.06367 6.18853 6.0495 6.1252 6.0495C6.06686 6.0495 6.01853 6.062 5.9802 6.087C5.94186 6.11033 5.9127 6.142 5.8927 6.182C5.8727 6.22033 5.8627 6.2645 5.8627 6.3145Z" fill="#8B6B3F"/>
<path d="M7.74525 7.3945C7.74525 7.44283 7.74942 7.4795 7.75775 7.5045C7.76775 7.5295 7.78692 7.54617 7.81525 7.5545C7.84525 7.56283 7.88942 7.567 7.94775 7.567C7.95109 7.567 7.95275 7.572 7.95275 7.582C7.95275 7.592 7.95109 7.597 7.94775 7.597C7.90609 7.597 7.85942 7.59617 7.80775 7.5945C7.75775 7.59283 7.70275 7.592 7.64275 7.592C7.58442 7.592 7.52942 7.59283 7.47775 7.5945C7.42609 7.59617 7.37942 7.597 7.33775 7.597C7.33442 7.597 7.33275 7.592 7.33275 7.582C7.33275 7.572 7.33442 7.567 7.33775 7.567C7.39609 7.567 7.44025 7.56283 7.47025 7.5545C7.50025 7.54617 7.52025 7.5295 7.53025 7.5045C7.54025 7.4795 7.54525 7.44283 7.54525 7.3945V6.237C7.54525 6.18867 7.54025 6.15283 7.53025 6.1295C7.52025 6.1045 7.50025 6.08783 7.47025 6.0795C7.44025 6.0695 7.39609 6.0645 7.33775 6.0645C7.33442 6.0645 7.33275 6.0595 7.33275 6.0495C7.33275 6.0395 7.33442 6.0345 7.33775 6.0345C7.37942 6.0345 7.42609 6.03617 7.47775 6.0395C7.52942 6.04117 7.58442 6.042 7.64275 6.042C7.70275 6.042 7.75859 6.04117 7.81025 6.0395C7.86192 6.03617 7.90775 6.0345 7.94775 6.0345C7.95109 6.0345 7.95275 6.0395 7.95275 6.0495C7.95275 6.0595 7.95109 6.0645 7.94775 6.0645C7.88942 6.0645 7.84609 6.0695 7.81775 6.0795C7.78942 6.0895 7.77025 6.107 7.76025 6.132C7.75025 6.157 7.74525 6.19367 7.74525 6.242V7.3945Z" fill="#8B6B3F"/>
<path d="M9.60266 6.007C9.66599 6.007 9.72432 6.01033 9.77766 6.017C9.83266 6.022 9.88349 6.03117 9.93016 6.0445C9.97849 6.05783 10.0243 6.07533 10.0677 6.097C10.081 6.102 10.0885 6.10783 10.0902 6.1145C10.0935 6.1195 10.096 6.132 10.0977 6.152L10.1302 6.467C10.1302 6.47033 10.1252 6.47367 10.1152 6.477C10.1068 6.47867 10.1018 6.47617 10.1002 6.4695C10.0585 6.33117 9.99516 6.227 9.91016 6.157C9.82516 6.08533 9.71682 6.0495 9.58516 6.0495C9.45182 6.0495 9.33516 6.08033 9.23516 6.142C9.13516 6.20367 9.05682 6.29117 9.00016 6.4045C8.94349 6.51617 8.91516 6.64867 8.91516 6.802C8.91516 6.91533 8.93266 7.0195 8.96766 7.1145C9.00266 7.2095 9.05099 7.29283 9.11266 7.3645C9.17599 7.4345 9.24849 7.48867 9.33016 7.527C9.41349 7.56533 9.50266 7.5845 9.59766 7.5845C9.73099 7.5845 9.83849 7.55117 9.92016 7.4845C10.0035 7.41783 10.0702 7.31617 10.1202 7.1795C10.1235 7.1745 10.1293 7.17283 10.1377 7.1745C10.146 7.17617 10.1502 7.1795 10.1502 7.1845L10.1227 7.4695C10.121 7.4895 10.1177 7.502 10.1127 7.507C10.1093 7.512 10.1018 7.51783 10.0902 7.5245C10.0052 7.56283 9.92349 7.5895 9.84516 7.6045C9.76849 7.62117 9.68599 7.6295 9.59766 7.6295C9.42099 7.6295 9.26349 7.59533 9.12516 7.527C8.98849 7.457 8.88099 7.36117 8.80266 7.2395C8.72432 7.11617 8.68516 6.97367 8.68516 6.812C8.68516 6.692 8.70766 6.58283 8.75266 6.4845C8.79932 6.38617 8.86432 6.30117 8.94766 6.2295C9.03099 6.15783 9.12766 6.10283 9.23766 6.0645C9.34932 6.02617 9.47099 6.007 9.60266 6.007Z" fill="#8B6B3F"/>
<path d="M12.3251 6.9445L12.3551 6.8895H13.0351L13.0526 6.9445H12.3251ZM13.6176 7.567C13.6259 7.567 13.6301 7.572 13.6301 7.582C13.6301 7.592 13.6259 7.597 13.6176 7.597C13.5692 7.597 13.5192 7.59533 13.4676 7.592C13.4176 7.58867 13.3684 7.587 13.3201 7.587C13.2667 7.587 13.2201 7.58867 13.1801 7.592C13.1417 7.59533 13.0984 7.597 13.0501 7.597C13.0434 7.597 13.0401 7.592 13.0401 7.582C13.0401 7.572 13.0434 7.567 13.0501 7.567C13.1317 7.567 13.1817 7.5545 13.2001 7.5295C13.2184 7.50283 13.2092 7.45117 13.1726 7.3745L12.6351 6.257L12.7151 6.137L12.2276 7.267C12.1842 7.36867 12.1817 7.4445 12.2201 7.4945C12.2584 7.54283 12.3301 7.567 12.4351 7.567C12.4434 7.567 12.4476 7.572 12.4476 7.582C12.4476 7.592 12.4434 7.597 12.4351 7.597C12.3851 7.597 12.3392 7.59533 12.2976 7.592C12.2559 7.58867 12.2034 7.587 12.1401 7.587C12.0784 7.587 12.0284 7.58867 11.9901 7.592C11.9534 7.59533 11.9084 7.597 11.8551 7.597C11.8484 7.597 11.8451 7.592 11.8451 7.582C11.8451 7.572 11.8484 7.567 11.8551 7.567C11.9001 7.567 11.9392 7.55867 11.9726 7.542C12.0059 7.52367 12.0376 7.49117 12.0676 7.4445C12.0992 7.39783 12.1334 7.33117 12.1701 7.2445L12.7026 6.017C12.7042 6.012 12.7101 6.0095 12.7201 6.0095C12.7301 6.00783 12.7359 6.01033 12.7376 6.017L13.3376 7.2545C13.3776 7.33617 13.4117 7.40033 13.4401 7.447C13.4701 7.492 13.4992 7.52367 13.5276 7.542C13.5559 7.55867 13.5859 7.567 13.6176 7.567Z" fill="#8B6B3F"/>
<path d="M15.1334 6.007C15.1968 6.007 15.2551 6.01033 15.3084 6.017C15.3634 6.022 15.4143 6.03117 15.4609 6.0445C15.5093 6.05783 15.5551 6.07533 15.5984 6.097C15.6118 6.102 15.6193 6.10783 15.6209 6.1145C15.6243 6.1195 15.6268 6.132 15.6284 6.152L15.6609 6.467C15.6609 6.47033 15.6559 6.47367 15.6459 6.477C15.6376 6.47867 15.6326 6.47617 15.6309 6.4695C15.5893 6.33117 15.5259 6.227 15.4409 6.157C15.3559 6.08533 15.2476 6.0495 15.1159 6.0495C14.9826 6.0495 14.8659 6.08033 14.7659 6.142C14.6659 6.20367 14.5876 6.29117 14.5309 6.4045C14.4743 6.51617 14.4459 6.64867 14.4459 6.802C14.4459 6.91533 14.4634 7.0195 14.4984 7.1145C14.5334 7.2095 14.5818 7.29283 14.6434 7.3645C14.7068 7.4345 14.7793 7.48867 14.8609 7.527C14.9443 7.56533 15.0334 7.5845 15.1284 7.5845C15.2618 7.5845 15.3693 7.55117 15.4509 7.4845C15.5343 7.41783 15.6009 7.31617 15.6509 7.1795C15.6543 7.1745 15.6601 7.17283 15.6684 7.1745C15.6768 7.17617 15.6809 7.1795 15.6809 7.1845L15.6534 7.4695C15.6518 7.4895 15.6484 7.502 15.6434 7.507C15.6401 7.512 15.6326 7.51783 15.6209 7.5245C15.5359 7.56283 15.4543 7.5895 15.3759 7.6045C15.2993 7.62117 15.2168 7.6295 15.1284 7.6295C14.9518 7.6295 14.7943 7.59533 14.6559 7.527C14.5193 7.457 14.4118 7.36117 14.3334 7.2395C14.2551 7.11617 14.2159 6.97367 14.2159 6.812C14.2159 6.692 14.2384 6.58283 14.2834 6.4845C14.3301 6.38617 14.3951 6.30117 14.4784 6.2295C14.5618 6.15783 14.6584 6.10283 14.7684 6.0645C14.8801 6.02617 15.0018 6.007 15.1334 6.007Z" fill="#8B6B3F"/>
<path d="M16.7699 6.9445L16.7999 6.8895H17.4799L17.4974 6.9445H16.7699ZM18.0624 7.567C18.0707 7.567 18.0749 7.572 18.0749 7.582C18.0749 7.592 18.0707 7.597 18.0624 7.597C18.0141 7.597 17.9641 7.59533 17.9124 7.592C17.8624 7.58867 17.8132 7.587 17.7649 7.587C17.7116 7.587 17.6649 7.58867 17.6249 7.592C17.5866 7.59533 17.5432 7.597 17.4949 7.597C17.4882 7.597 17.4849 7.592 17.4849 7.582C17.4849 7.572 17.4882 7.567 17.4949 7.567C17.5766 7.567 17.6266 7.5545 17.6449 7.5295C17.6632 7.50283 17.6541 7.45117 17.6174 7.3745L17.0799 6.257L17.1599 6.137L16.6724 7.267C16.6291 7.36867 16.6266 7.4445 16.6649 7.4945C16.7032 7.54283 16.7749 7.567 16.8799 7.567C16.8882 7.567 16.8924 7.572 16.8924 7.582C16.8924 7.592 16.8882 7.597 16.8799 7.597C16.8299 7.597 16.7841 7.59533 16.7424 7.592C16.7007 7.58867 16.6482 7.587 16.5849 7.587C16.5232 7.587 16.4732 7.58867 16.4349 7.592C16.3982 7.59533 16.3532 7.597 16.2999 7.597C16.2932 7.597 16.2899 7.592 16.2899 7.582C16.2899 7.572 16.2932 7.567 16.2999 7.567C16.3449 7.567 16.3841 7.55867 16.4174 7.542C16.4507 7.52367 16.4824 7.49117 16.5124 7.4445C16.5441 7.39783 16.5782 7.33117 16.6149 7.2445L17.1474 6.017C17.1491 6.012 17.1549 6.0095 17.1649 6.0095C17.1749 6.00783 17.1807 6.01033 17.1824 6.017L17.7824 7.2545C17.8224 7.33617 17.8566 7.40033 17.8849 7.447C17.9149 7.492 17.9441 7.52367 17.9724 7.542C18.0007 7.55867 18.0307 7.567 18.0624 7.567Z" fill="#8B6B3F"/>
<path d="M19.3425 7.607C19.2925 7.607 19.2309 7.6045 19.1575 7.5995C19.0842 7.5945 19.0167 7.592 18.955 7.592C18.8984 7.592 18.8434 7.59283 18.79 7.5945C18.7384 7.59617 18.6917 7.597 18.65 7.597C18.6467 7.597 18.645 7.592 18.645 7.582C18.645 7.572 18.6467 7.567 18.65 7.567C18.7084 7.567 18.7525 7.56283 18.7825 7.5545C18.8125 7.54617 18.8325 7.5295 18.8425 7.5045C18.8525 7.4795 18.8575 7.44283 18.8575 7.3945V6.237C18.8575 6.18867 18.8525 6.15283 18.8425 6.1295C18.8325 6.1045 18.8125 6.08783 18.7825 6.0795C18.7542 6.0695 18.7117 6.0645 18.655 6.0645C18.65 6.0645 18.6475 6.0595 18.6475 6.0495C18.6475 6.0395 18.65 6.0345 18.655 6.0345C18.6967 6.0345 18.7425 6.03617 18.7925 6.0395C18.8442 6.04117 18.8984 6.042 18.955 6.042C19.0117 6.042 19.0725 6.04033 19.1375 6.037C19.2042 6.032 19.2609 6.0295 19.3075 6.0295C19.4842 6.0295 19.6375 6.06283 19.7675 6.1295C19.8992 6.19617 20.0017 6.287 20.075 6.402C20.1484 6.517 20.185 6.64617 20.185 6.7895C20.185 6.9145 20.1625 7.02783 20.1175 7.1295C20.0742 7.2295 20.0134 7.31533 19.935 7.387C19.8567 7.457 19.7667 7.51117 19.665 7.5495C19.5634 7.58783 19.4559 7.607 19.3425 7.607ZM19.3175 7.562C19.4425 7.562 19.5525 7.5345 19.6475 7.4795C19.7442 7.4245 19.82 7.34367 19.875 7.237C19.93 7.12867 19.9575 6.99783 19.9575 6.8445C19.9575 6.6995 19.9317 6.5695 19.88 6.4545C19.8284 6.33783 19.7559 6.24533 19.6625 6.177C19.5709 6.107 19.4609 6.072 19.3325 6.072C19.2325 6.072 19.1609 6.082 19.1175 6.102C19.0759 6.122 19.055 6.16867 19.055 6.242V7.367C19.055 7.43367 19.0717 7.48283 19.105 7.5145C19.1384 7.54617 19.2092 7.562 19.3175 7.562Z" fill="#8B6B3F"/>
<path d="M21.9808 7.597H20.9158C20.9108 7.597 20.9083 7.592 20.9083 7.582C20.9083 7.572 20.9108 7.567 20.9158 7.567C20.9724 7.567 21.0149 7.56283 21.0433 7.5545C21.0733 7.54617 21.0933 7.5295 21.1033 7.5045C21.1133 7.4795 21.1183 7.44283 21.1183 7.3945V6.237C21.1183 6.18867 21.1133 6.15283 21.1033 6.1295C21.0933 6.1045 21.0733 6.08783 21.0433 6.0795C21.0149 6.0695 20.9724 6.0645 20.9158 6.0645C20.9108 6.0645 20.9083 6.0595 20.9083 6.0495C20.9083 6.0395 20.9108 6.0345 20.9158 6.0345H21.9358C21.9524 6.0345 21.9608 6.042 21.9608 6.057L21.9658 6.372C21.9658 6.377 21.9608 6.38033 21.9508 6.382C21.9424 6.382 21.9374 6.3795 21.9358 6.3745C21.9241 6.28283 21.8916 6.21367 21.8383 6.167C21.7849 6.11867 21.7149 6.0945 21.6283 6.0945H21.5008C21.4508 6.0945 21.4124 6.09867 21.3858 6.107C21.3591 6.11533 21.3408 6.13117 21.3308 6.1545C21.3208 6.17617 21.3158 6.207 21.3158 6.247V7.3845C21.3158 7.4245 21.3199 7.45617 21.3283 7.4795C21.3383 7.50117 21.3558 7.517 21.3808 7.527C21.4058 7.53533 21.4408 7.5395 21.4858 7.5395H21.6508C21.7458 7.5395 21.8241 7.512 21.8858 7.457C21.9474 7.40033 21.9899 7.32033 22.0133 7.217C22.0133 7.212 22.0183 7.21033 22.0283 7.212C22.0383 7.21367 22.0433 7.217 22.0433 7.222C22.0366 7.267 22.0308 7.32117 22.0258 7.3845C22.0208 7.44783 22.0183 7.50617 22.0183 7.5595C22.0183 7.5845 22.0058 7.597 21.9808 7.597ZM21.8408 7.022C21.8408 6.95033 21.8199 6.89783 21.7783 6.8645C21.7383 6.8295 21.6733 6.812 21.5833 6.812H21.2208V6.7545H21.5908C21.6758 6.7545 21.7383 6.74033 21.7783 6.712C21.8183 6.682 21.8383 6.63617 21.8383 6.5745C21.8383 6.57117 21.8424 6.5695 21.8508 6.5695C21.8608 6.5695 21.8658 6.57117 21.8658 6.5745C21.8658 6.62617 21.8649 6.66617 21.8633 6.6945C21.8633 6.72283 21.8633 6.75283 21.8633 6.7845C21.8633 6.82283 21.8641 6.86117 21.8658 6.8995C21.8691 6.93783 21.8708 6.97867 21.8708 7.022C21.8708 7.02533 21.8658 7.027 21.8558 7.027C21.8458 7.027 21.8408 7.02533 21.8408 7.022Z" fill="#8B6B3F"/>
<path d="M22.9607 7.312L22.9857 6.092L23.0482 6.097L23.0232 7.312C23.0216 7.39867 23.0366 7.46283 23.0682 7.5045C23.1016 7.54617 23.1566 7.567 23.2332 7.567C23.2382 7.567 23.2407 7.572 23.2407 7.582C23.2407 7.592 23.2382 7.597 23.2332 7.597C23.1966 7.597 23.1591 7.59617 23.1207 7.5945C23.0824 7.59283 23.0391 7.592 22.9907 7.592C22.9457 7.592 22.9032 7.59283 22.8632 7.5945C22.8232 7.59617 22.7857 7.597 22.7507 7.597C22.7474 7.597 22.7457 7.592 22.7457 7.582C22.7457 7.572 22.7474 7.567 22.7507 7.567C22.8207 7.567 22.8724 7.54617 22.9057 7.5045C22.9407 7.46283 22.9591 7.39867 22.9607 7.312ZM24.7107 7.567C24.7141 7.567 24.7157 7.572 24.7157 7.582C24.7157 7.592 24.7141 7.597 24.7107 7.597C24.6691 7.597 24.6224 7.59617 24.5707 7.5945C24.5191 7.59283 24.4641 7.592 24.4057 7.592C24.3507 7.592 24.2991 7.59283 24.2507 7.5945C24.2024 7.59617 24.1591 7.597 24.1207 7.597C24.1157 7.597 24.1132 7.592 24.1132 7.582C24.1132 7.572 24.1157 7.567 24.1207 7.567C24.2024 7.567 24.2549 7.55617 24.2782 7.5345C24.3016 7.51283 24.3107 7.46617 24.3057 7.3945L24.2557 6.217L24.3532 6.077L23.7057 7.5795C23.7041 7.58617 23.6974 7.5895 23.6857 7.5895C23.6757 7.5895 23.6691 7.58617 23.6657 7.5795L23.0132 6.242C22.9549 6.12367 22.8732 6.0645 22.7682 6.0645C22.7649 6.0645 22.7632 6.0595 22.7632 6.0495C22.7632 6.0395 22.7649 6.0345 22.7682 6.0345C22.7982 6.0345 22.8291 6.03533 22.8607 6.037C22.8941 6.03867 22.9224 6.0395 22.9457 6.0395C22.9774 6.0395 23.0057 6.03867 23.0307 6.037C23.0574 6.03533 23.0774 6.0345 23.0907 6.0345C23.1141 6.0345 23.1324 6.04283 23.1457 6.0595C23.1591 6.0745 23.1791 6.1095 23.2057 6.1645L23.7732 7.317L23.6807 7.477L24.2832 6.097C24.2916 6.077 24.3016 6.062 24.3132 6.052C24.3266 6.04033 24.3416 6.0345 24.3582 6.0345C24.3699 6.0345 24.3841 6.03533 24.4007 6.037C24.4191 6.03867 24.4399 6.0395 24.4632 6.0395C24.5099 6.0395 24.5491 6.03867 24.5807 6.037C24.6124 6.03533 24.6449 6.0345 24.6782 6.0345C24.6816 6.0345 24.6832 6.0395 24.6832 6.0495C24.6832 6.0595 24.6816 6.0645 24.6782 6.0645C24.5982 6.0645 24.5399 6.07783 24.5032 6.1045C24.4666 6.1295 24.4491 6.17617 24.4507 6.2445L24.5032 7.3945C24.5066 7.44283 24.5132 7.4795 24.5232 7.5045C24.5332 7.5295 24.5524 7.54617 24.5807 7.5545C24.6091 7.56283 24.6524 7.567 24.7107 7.567Z" fill="#8B6B3F"/>
<path d="M26.0327 6.8845L26.3877 6.327C26.4377 6.24367 26.4561 6.1795 26.4427 6.1345C26.4294 6.08783 26.3852 6.0645 26.3102 6.0645C26.3052 6.0645 26.3027 6.0595 26.3027 6.0495C26.3027 6.0395 26.3052 6.0345 26.3102 6.0345C26.3586 6.0345 26.4036 6.03617 26.4452 6.0395C26.4886 6.04117 26.5452 6.042 26.6152 6.042C26.6569 6.042 26.6902 6.04117 26.7152 6.0395C26.7419 6.03617 26.7736 6.0345 26.8102 6.0345C26.8136 6.0345 26.8152 6.0395 26.8152 6.0495C26.8152 6.0595 26.8136 6.0645 26.8102 6.0645C26.7736 6.0645 26.7336 6.07617 26.6902 6.0995C26.6469 6.12117 26.6044 6.15283 26.5627 6.1945C26.5227 6.2345 26.4852 6.28283 26.4502 6.3395L26.0802 6.9245L26.0327 6.8845ZM25.9702 6.917L25.5427 6.277C25.4877 6.19533 25.4402 6.1395 25.4002 6.1095C25.3602 6.0795 25.3169 6.0645 25.2702 6.0645C25.2652 6.0645 25.2627 6.0595 25.2627 6.0495C25.2627 6.0395 25.2652 6.0345 25.2702 6.0345C25.2969 6.0345 25.3252 6.03617 25.3552 6.0395C25.3852 6.04117 25.4136 6.042 25.4402 6.042C25.4869 6.042 25.5327 6.042 25.5777 6.042C25.6227 6.04033 25.6652 6.03867 25.7052 6.037C25.7469 6.03533 25.7827 6.0345 25.8127 6.0345C25.8161 6.0345 25.8177 6.0395 25.8177 6.0495C25.8177 6.0595 25.8161 6.0645 25.8127 6.0645C25.7527 6.0645 25.7152 6.07617 25.7002 6.0995C25.6869 6.12283 25.6944 6.1545 25.7227 6.1945L26.1277 6.802L25.9702 6.917ZM25.9402 6.822L26.1402 6.7995V7.3945C26.1402 7.44283 26.1444 7.4795 26.1527 7.5045C26.1627 7.5295 26.1819 7.54617 26.2102 7.5545C26.2386 7.56283 26.2819 7.567 26.3402 7.567C26.3452 7.567 26.3477 7.572 26.3477 7.582C26.3477 7.592 26.3452 7.597 26.3402 7.597C26.3002 7.597 26.2544 7.59617 26.2027 7.5945C26.1527 7.59283 26.0977 7.592 26.0377 7.592C25.9811 7.592 25.9261 7.59283 25.8727 7.5945C25.8211 7.59617 25.7752 7.597 25.7352 7.597C25.7302 7.597 25.7277 7.592 25.7277 7.582C25.7277 7.572 25.7302 7.567 25.7352 7.567C25.7936 7.567 25.8369 7.56283 25.8652 7.5545C25.8952 7.54617 25.9152 7.5295 25.9252 7.5045C25.9352 7.4795 25.9402 7.44283 25.9402 7.3945V6.822Z" fill="#8B6B3F"/>
</svg>
