<svg width="14" height="16" viewBox="0 0 14 16" fill="none" xmlns="http://www.w3.org/2000/svg">
<path d="M7.03268 9.25797V8.769H10.1503L10.2876 9.25797H7.03268ZM13.902 13.8509C13.9673 13.8509 14 13.8954 14 13.9843C14 14.0732 13.9673 14.1176 13.902 14.1176C13.5229 14.1176 13.1307 14.1028 12.7255 14.0732C12.3333 14.0436 11.9477 14.0287 11.5686 14.0287C11.1503 14.0287 10.7843 14.0436 10.4706 14.0732C10.1699 14.1028 9.83007 14.1176 9.45098 14.1176C9.39869 14.1176 9.37255 14.0732 9.37255 13.9843C9.37255 13.8954 9.39869 13.8509 9.45098 13.8509C10.0915 13.8509 10.4837 13.7398 10.6275 13.5176C10.7712 13.2805 10.6993 12.8212 10.4118 12.1396L6.19608 2.20477L6.82353 1.13795L3 11.1839C2.66013 12.0877 2.64052 12.7619 2.94118 13.2064C3.24183 13.6361 3.80392 13.8509 4.62745 13.8509C4.69281 13.8509 4.72549 13.8954 4.72549 13.9843C4.72549 14.0732 4.69281 14.1176 4.62745 14.1176C4.23529 14.1176 3.87582 14.1028 3.54902 14.0732C3.22222 14.0436 2.81046 14.0287 2.31373 14.0287C1.83007 14.0287 1.43791 14.0436 1.13725 14.0732C0.849673 14.1028 0.496732 14.1176 0.0784314 14.1176C0.0261438 14.1176 0 14.0732 0 13.9843C0 13.8954 0.0261438 13.8509 0.0784314 13.8509C0.431373 13.8509 0.738562 13.7769 1 13.6287C1.26144 13.4657 1.5098 13.1768 1.7451 12.7619C1.99346 12.347 2.26144 11.7543 2.54902 10.9838L6.72549 0.071122C6.73856 0.0266707 6.78431 0.00444499 6.86274 0.00444499C6.94118 -0.0103718 6.98693 0.0118538 7 0.071122L11.7059 11.0728C12.0196 11.7988 12.2876 12.3692 12.5098 12.7841C12.7451 13.1842 12.9739 13.4657 13.1961 13.6287C13.4183 13.7769 13.6536 13.8509 13.902 13.8509Z" fill="#8B6B3F"/>
<path d="M5.88368 6.00203C5.51091 5.9925 5.07494 6.86869 5.08944 7.6501C5.0928 7.8881 5.16911 8.37079 5.28046 8.97701C4.57826 9.69243 3.76286 10.4266 3.76286 11.39C3.75167 12.2728 4.2998 13.3976 5.60027 13.3867C5.79988 13.3854 5.9795 13.3611 6.13906 13.3191C6.25796 13.9608 6.33702 14.4672 6.33654 14.7011C6.34073 15.6234 5.10977 15.7147 5.05076 15.1846C5.3102 15.1758 5.51661 14.973 5.51661 14.7221C5.51661 14.4659 5.30106 14.2569 5.03359 14.2569C4.88653 14.2569 4.75547 14.3205 4.66659 14.4199C4.66453 14.4219 4.66213 14.4239 4.66014 14.426C4.64008 14.4469 4.62318 14.4719 4.60649 14.5003C4.55168 14.5916 4.5161 14.7228 4.51417 14.9101C4.51417 15.6822 6.49754 16.1792 6.49754 14.6565C6.50063 14.4517 6.41113 13.9317 6.28076 13.2765C7.69594 12.7728 7.34041 10.7045 6.03822 10.6948C5.93725 10.6958 5.83992 10.7074 5.7463 10.7308C5.67212 10.3794 5.60054 10.0383 5.53804 9.72495C6.03252 9.24686 6.4643 8.62799 6.45461 7.48742C6.45612 6.66836 6.1789 6.01156 5.88368 6.00203ZM5.97167 6.79439C6.14036 6.77836 6.2743 6.93252 6.2743 7.27187C6.28797 7.8547 5.87317 8.36369 5.37923 8.87559C5.33197 8.5952 5.30099 8.36802 5.29763 8.23327C5.31164 7.32279 5.69046 6.8211 5.97167 6.79439ZM5.44146 9.81582C5.5017 10.1211 5.56675 10.4427 5.63248 10.7667C4.77059 11.0685 4.35695 12.251 5.57884 12.7803C4.83405 12.1561 5.20064 11.4173 5.73764 11.2886C5.87269 11.9523 6.00457 12.6072 6.11117 13.1731C5.96644 13.2231 5.79754 13.2522 5.60027 13.2535C5.10702 13.2535 4.12135 12.9446 4.12135 11.7745C4.12135 10.7945 4.81146 10.3963 5.44146 9.81582ZM5.86005 11.2674C5.88155 11.2661 5.90483 11.2667 5.92654 11.2674C6.82381 11.2674 7.16224 12.67 6.24855 13.1183C6.13487 12.5558 5.99701 11.9107 5.86005 11.2674Z" fill="#8B6B3F"/>
<path d="M4.56399 9.46965L4.68762 9.41716C5.30767 9.15046 5.85962 8.85613 6.0781 8.3325L6.14561 8.59309C5.70359 9.61129 5.09392 9.99687 4.48674 10.2333L4.36915 10.2772C3.60688 10.553 2.86567 10.6436 2.47885 11.5153L2.13119 12.189C2.08945 11.7865 2.17349 11.3719 2.32726 11.0364C2.70752 10.1795 3.68736 9.83784 4.56399 9.46965Z" fill="#8B6B3F"/>
</svg>
