<svg width="31" height="4" viewBox="0 0 31 4" fill="none" xmlns="http://www.w3.org/2000/svg">
<path d="M1.44551 1.407C1.54117 1.34167 1.63567 1.2705 1.72901 1.1935C1.82467 1.1165 1.90984 1.04183 1.98451 0.9695C2.06151 0.894834 2.11867 0.830667 2.15601 0.777C2.17701 0.742 2.18284 0.719834 2.17351 0.7105C2.16651 0.701167 2.14551 0.6965 2.11051 0.6965C2.07784 0.6965 2.01717 0.702334 1.92851 0.714C1.84217 0.723334 1.73951 0.736167 1.62051 0.7525C1.50151 0.768834 1.37784 0.7875 1.24951 0.8085C1.12351 0.8295 1.00334 0.8505 0.889008 0.8715C0.777008 0.890167 0.682508 0.9065 0.605508 0.9205C0.561175 0.932167 0.526175 0.946167 0.500508 0.9625C0.477175 0.9765 0.456175 0.9905 0.437508 1.0045C0.418841 1.0185 0.394341 1.0255 0.364008 1.0255C0.331341 1.0255 0.292841 1.0115 0.248508 0.9835C0.204175 0.953167 0.162175 0.917 0.122508 0.875C0.0851745 0.833 0.0583412 0.793334 0.0420078 0.756C0.0256745 0.723334 0.0151745 0.687167 0.0105078 0.6475C0.00584117 0.607834 0.00234118 0.567 7.84546e-06 0.525L0.0700078 0.5075C0.109675 0.558834 0.144675 0.602 0.175008 0.637C0.205341 0.672 0.246175 0.6895 0.297508 0.6895C0.339508 0.6895 0.406008 0.686 0.497008 0.679C0.590341 0.672 0.697675 0.662667 0.819008 0.651C0.940341 0.639334 1.06517 0.6265 1.19351 0.6125C1.32417 0.5985 1.44784 0.585667 1.56451 0.574C1.68351 0.56 1.78734 0.548334 1.87601 0.539C1.96467 0.527334 2.02651 0.519167 2.06151 0.5145C2.10584 0.5075 2.14084 0.494667 2.16651 0.476C2.19451 0.457334 2.22484 0.448 2.25751 0.448C2.28317 0.448 2.31701 0.460834 2.35901 0.4865C2.40101 0.512167 2.44301 0.544834 2.48501 0.5845C2.52934 0.621834 2.56551 0.6615 2.59351 0.7035C2.62384 0.743167 2.63901 0.775834 2.63901 0.8015C2.63901 0.831834 2.62501 0.856334 2.59701 0.875C2.56901 0.891334 2.53634 0.9065 2.49901 0.9205C2.46167 0.932167 2.43017 0.947334 2.40451 0.966C2.34851 1.00567 2.27267 1.057 2.17701 1.12C2.08134 1.183 1.97634 1.2495 1.86201 1.3195C1.74767 1.38717 1.63101 1.45133 1.51201 1.512L1.44551 1.407ZM0.150508 3.0415C0.288175 2.95517 0.415341 2.856 0.532008 2.744C0.648675 2.62967 0.752508 2.51183 0.843508 2.3905C0.936841 2.26683 1.01617 2.14783 1.08151 2.0335C1.14684 1.91917 1.19584 1.81767 1.22851 1.729C1.26351 1.638 1.28101 1.56917 1.28101 1.5225C1.28101 1.46883 1.25301 1.42567 1.19701 1.393C1.14334 1.36033 1.07801 1.33 1.00101 1.302L1.01851 1.2355C1.06517 1.23083 1.10601 1.2285 1.14101 1.2285C1.17601 1.2285 1.21101 1.23083 1.24601 1.2355C1.32767 1.24483 1.40001 1.26233 1.46301 1.288C1.52601 1.31367 1.57034 1.33933 1.59601 1.365C1.61934 1.38367 1.63451 1.4035 1.64151 1.4245C1.64851 1.44317 1.64617 1.47 1.63451 1.505C1.54584 1.743 1.43851 1.96 1.31251 2.156C1.18651 2.352 1.03367 2.52933 0.854008 2.688C0.676675 2.84667 0.460841 2.98783 0.206508 3.1115L0.150508 3.0415ZM4.03537 2.8945C3.98404 2.8945 3.92804 2.87817 3.86737 2.8455C3.8067 2.81283 3.7507 2.77433 3.69937 2.73C3.65037 2.68333 3.61304 2.64133 3.58737 2.604C3.5687 2.569 3.55237 2.527 3.53837 2.478C3.5267 2.42667 3.5197 2.3835 3.51737 2.3485L3.56987 2.3135C3.60254 2.3485 3.63637 2.3835 3.67137 2.4185C3.7087 2.4535 3.74604 2.48267 3.78337 2.506C3.82304 2.52933 3.86154 2.541 3.89887 2.541C3.9502 2.541 4.02487 2.51767 4.12287 2.471C4.22087 2.422 4.3352 2.3555 4.46587 2.2715C4.59654 2.1875 4.73304 2.09067 4.87537 1.981C5.02004 1.87133 5.16354 1.75467 5.30587 1.631C5.4482 1.50733 5.58004 1.38133 5.70137 1.253C5.8227 1.12467 5.9242 0.999834 6.00587 0.8785L6.08287 0.9275C5.9452 1.1795 5.78187 1.41283 5.59287 1.6275C5.4062 1.83983 5.19854 2.03933 4.96987 2.226C4.74354 2.41033 4.50087 2.58533 4.24187 2.751C4.21387 2.765 4.18937 2.78367 4.16837 2.807C4.1497 2.83033 4.12987 2.85133 4.10887 2.87C4.08787 2.88633 4.06337 2.8945 4.03537 2.8945ZM4.36437 1.3265C4.32704 1.3265 4.29204 1.31483 4.25937 1.2915C4.22904 1.26583 4.1917 1.225 4.14737 1.169C4.10537 1.11533 4.06454 1.0675 4.02487 1.0255C3.9852 0.981167 3.9432 0.938 3.89887 0.896C3.85687 0.854 3.8067 0.810834 3.74837 0.7665C3.69004 0.719834 3.6212 0.669667 3.54187 0.616L3.58387 0.546C3.68887 0.569334 3.7962 0.602 3.90587 0.644C4.01554 0.683667 4.11587 0.729167 4.20687 0.7805C4.3002 0.831834 4.37487 0.890167 4.43087 0.9555C4.48687 1.02083 4.51487 1.09083 4.51487 1.1655C4.51487 1.21217 4.50087 1.25067 4.47287 1.281C4.44487 1.31133 4.4087 1.3265 4.36437 1.3265ZM7.11887 3.087C7.2822 2.97967 7.4222 2.86417 7.53887 2.7405C7.65787 2.61683 7.75704 2.49317 7.83637 2.3695C7.91804 2.24583 7.9822 2.12917 8.02887 2.0195C8.07554 1.90983 8.1082 1.813 8.12687 1.729C8.14554 1.645 8.15487 1.582 8.15487 1.54C8.15487 1.505 8.14554 1.47117 8.12687 1.4385C8.1082 1.40583 8.0767 1.36967 8.03237 1.33L8.20737 1.295C8.25637 1.32067 8.30654 1.34867 8.35787 1.379C8.4092 1.40933 8.45237 1.44083 8.48737 1.4735C8.52237 1.50617 8.53987 1.53767 8.53987 1.568C8.53987 1.59133 8.5317 1.61233 8.51537 1.631C8.50137 1.64733 8.48387 1.66717 8.46287 1.6905C8.44187 1.71383 8.4232 1.74533 8.40687 1.785C8.37187 1.88067 8.32637 1.98567 8.27037 2.1C8.2167 2.21433 8.14437 2.33333 8.05337 2.457C7.96237 2.57833 7.8457 2.6985 7.70337 2.8175C7.56337 2.9365 7.3907 3.04967 7.18537 3.157L7.11887 3.087ZM7.11887 1.6065C7.09087 1.6065 7.05587 1.59367 7.01387 1.568C6.97187 1.54233 6.93337 1.50967 6.89837 1.47C6.86337 1.43033 6.84004 1.393 6.82837 1.358C6.8167 1.33233 6.8097 1.30433 6.80737 1.274C6.80504 1.24367 6.80387 1.20867 6.80387 1.169L6.85987 1.148C6.89487 1.19233 6.93104 1.23317 6.96837 1.2705C7.0057 1.3055 7.0477 1.323 7.09437 1.323C7.14337 1.323 7.2157 1.31833 7.31137 1.309C7.40704 1.29733 7.51787 1.2845 7.64387 1.2705C7.7722 1.25417 7.90637 1.23783 8.04637 1.2215C8.1887 1.20283 8.3287 1.18533 8.46637 1.169C8.60637 1.15267 8.73587 1.13867 8.85487 1.127C8.93654 1.12 8.99954 1.11183 9.04387 1.1025C9.09054 1.09083 9.12554 1.0815 9.14887 1.0745C9.1722 1.0675 9.19204 1.064 9.20837 1.064C9.26437 1.064 9.32037 1.07333 9.37637 1.092C9.4347 1.10833 9.4837 1.13167 9.52337 1.162C9.56304 1.19233 9.58287 1.22617 9.58287 1.2635C9.58287 1.30083 9.5747 1.32767 9.55837 1.344C9.54204 1.36033 9.51287 1.3685 9.47087 1.3685C9.44054 1.3685 9.39037 1.36383 9.32037 1.3545C9.2527 1.34517 9.17337 1.3405 9.08237 1.3405C8.99604 1.3405 8.87937 1.344 8.73237 1.351C8.58537 1.358 8.42904 1.36967 8.26337 1.386C8.1607 1.39767 8.0522 1.41167 7.93787 1.428C7.82354 1.44433 7.71854 1.46183 7.62287 1.4805C7.52954 1.49917 7.46187 1.51433 7.41987 1.526C7.36387 1.54233 7.3102 1.55983 7.25887 1.5785C7.20987 1.59483 7.1632 1.60417 7.11887 1.6065ZM7.74187 0.756C7.64854 0.756 7.57154 0.729167 7.51087 0.6755C7.4502 0.621834 7.3907 0.544834 7.33237 0.4445L7.37787 0.4025C7.44787 0.449167 7.5097 0.481834 7.56337 0.5005C7.61704 0.519167 7.67304 0.5285 7.73137 0.5285C7.80604 0.5285 7.88187 0.525 7.95887 0.518C8.03587 0.508667 8.11054 0.497 8.18287 0.483C8.2552 0.466667 8.3182 0.452667 8.37187 0.441C8.43954 0.424667 8.49204 0.4095 8.52937 0.3955C8.5667 0.379167 8.59587 0.366334 8.61687 0.357C8.6402 0.345334 8.66237 0.3395 8.68337 0.3395C8.7697 0.3395 8.84087 0.3535 8.89687 0.3815C8.9552 0.4095 8.98437 0.449167 8.98437 0.5005C8.98437 0.5285 8.9727 0.551834 8.94937 0.5705C8.92837 0.589167 8.88987 0.603167 8.83387 0.6125C8.7662 0.6265 8.6857 0.641667 8.59237 0.658C8.49904 0.674334 8.40104 0.6895 8.29837 0.7035C8.1957 0.7175 8.09654 0.730334 8.00087 0.742C7.9052 0.751334 7.81887 0.756 7.74187 0.756ZM10.2931 2.464C10.4354 2.38233 10.5743 2.29133 10.7096 2.191C10.8449 2.08833 10.9709 1.98333 11.0876 1.876C11.2066 1.76867 11.3093 1.666 11.3956 1.568C11.4843 1.47 11.5531 1.38483 11.6021 1.3125C11.6534 1.24017 11.6791 1.18767 11.6791 1.155C11.6791 1.127 11.6628 1.10017 11.6301 1.0745C11.5974 1.0465 11.5624 1.02433 11.5251 1.008L11.5426 0.9625C11.5753 0.9625 11.6079 0.963667 11.6406 0.966C11.6756 0.966 11.7118 0.971834 11.7491 0.9835C11.7911 0.9975 11.8331 1.01967 11.8751 1.05C11.9171 1.08033 11.9521 1.113 11.9801 1.148C12.0081 1.183 12.0221 1.2145 12.0221 1.2425C12.0221 1.26583 12.0163 1.28333 12.0046 1.295C11.9953 1.30667 11.9801 1.31833 11.9591 1.33C11.9404 1.34167 11.9183 1.36033 11.8926 1.386C11.8366 1.44667 11.7678 1.519 11.6861 1.603C11.6068 1.687 11.5146 1.77567 11.4096 1.869C11.3723 1.90167 11.3186 1.946 11.2486 2.002C11.1786 2.05567 11.0969 2.114 11.0036 2.177C10.9103 2.24 10.8064 2.30183 10.6921 2.3625C10.5778 2.42317 10.4564 2.47567 10.3281 2.52L10.2931 2.464ZM11.5041 3.1605C11.4458 3.1605 11.4014 3.13367 11.3711 3.08C11.3431 3.02633 11.3291 2.97033 11.3291 2.912C11.3291 2.88633 11.3326 2.85833 11.3396 2.828C11.3489 2.79767 11.3548 2.7615 11.3571 2.7195C11.3641 2.66117 11.3699 2.59817 11.3746 2.5305C11.3793 2.4605 11.3828 2.39167 11.3851 2.324C11.3874 2.25633 11.3886 2.19567 11.3886 2.142C11.3886 2.08833 11.3886 2.04633 11.3886 2.016C11.3863 1.97633 11.3793 1.94367 11.3676 1.918C11.3559 1.89 11.3373 1.8585 11.3116 1.8235L11.4236 1.729C11.4796 1.76867 11.5309 1.806 11.5776 1.841C11.6243 1.87367 11.6476 1.90517 11.6476 1.9355C11.6476 1.9565 11.6429 1.97867 11.6336 2.002C11.6266 2.02533 11.6219 2.0545 11.6196 2.0895C11.6173 2.21317 11.6161 2.33567 11.6161 2.457C11.6161 2.57833 11.6173 2.68683 11.6196 2.7825C11.6243 2.87817 11.6266 2.94933 11.6266 2.996C11.6266 3.04967 11.6161 3.0905 11.5951 3.1185C11.5741 3.1465 11.5438 3.1605 11.5041 3.1605ZM15.1931 2.968C15.1581 2.968 15.1313 2.95867 15.1126 2.94C15.0939 2.92133 15.0788 2.88983 15.0671 2.8455C15.0554 2.8035 15.0356 2.76617 15.0076 2.7335C14.9796 2.70083 14.9423 2.66583 14.8956 2.6285C14.8489 2.59117 14.7918 2.54683 14.7241 2.4955L14.7626 2.429C14.8163 2.45233 14.8699 2.47567 14.9236 2.499C14.9796 2.52 15.0298 2.53867 15.0741 2.555C15.1184 2.57133 15.1523 2.583 15.1756 2.59C15.2223 2.60167 15.2573 2.60517 15.2806 2.6005C15.3039 2.5935 15.3273 2.576 15.3506 2.548C15.3949 2.492 15.4346 2.41967 15.4696 2.331C15.5069 2.24 15.5396 2.14083 15.5676 2.0335C15.5979 1.92617 15.6224 1.82 15.6411 1.715C15.6621 1.61 15.6773 1.5155 15.6866 1.4315C15.6983 1.34517 15.7041 1.27983 15.7041 1.2355C15.7041 1.2075 15.6901 1.1935 15.6621 1.1935C15.6131 1.1935 15.5524 1.197 15.4801 1.204C15.4078 1.20867 15.3331 1.21683 15.2561 1.2285C15.1791 1.23783 15.1044 1.24833 15.0321 1.26C14.9621 1.26933 14.8991 1.27867 14.8431 1.288C14.7941 1.295 14.7358 1.30433 14.6681 1.316C14.6028 1.32767 14.5351 1.3405 14.4651 1.3545C14.3951 1.3685 14.3309 1.38133 14.2726 1.393C14.2143 1.40467 14.1699 1.414 14.1396 1.421C14.0859 1.435 14.0451 1.4525 14.0171 1.4735C13.9914 1.49217 13.9599 1.5015 13.9226 1.5015C13.8899 1.5015 13.8538 1.48517 13.8141 1.4525C13.7744 1.41983 13.7383 1.3825 13.7056 1.3405C13.6753 1.29617 13.6554 1.25883 13.6461 1.2285C13.6298 1.19117 13.6216 1.15267 13.6216 1.113C13.6216 1.07333 13.6239 1.03367 13.6286 0.994L13.6916 0.98C13.7196 1.02667 13.7488 1.07333 13.7791 1.12C13.8118 1.16433 13.8549 1.1865 13.9086 1.1865C13.9413 1.1865 13.9949 1.183 14.0696 1.176C14.1466 1.169 14.2376 1.16083 14.3426 1.1515C14.4476 1.13983 14.5584 1.127 14.6751 1.113C14.7918 1.099 14.9073 1.085 15.0216 1.071C15.1359 1.057 15.2409 1.04417 15.3366 1.0325C15.4346 1.0185 15.5139 1.008 15.5746 1.001C15.6073 0.996334 15.6329 0.987 15.6516 0.973C15.6726 0.959 15.6913 0.945 15.7076 0.931C15.7263 0.914667 15.7461 0.9065 15.7671 0.9065C15.7881 0.9065 15.8161 0.917 15.8511 0.938C15.8861 0.956667 15.9211 0.981167 15.9561 1.0115C15.9911 1.04183 16.0203 1.07217 16.0436 1.1025C16.0693 1.13283 16.0821 1.1585 16.0821 1.1795C16.0821 1.20517 16.0739 1.225 16.0576 1.239C16.0413 1.25067 16.0238 1.26467 16.0051 1.281C15.9864 1.29733 15.9736 1.32417 15.9666 1.3615C15.9503 1.47117 15.9316 1.58317 15.9106 1.6975C15.8919 1.8095 15.8674 1.9215 15.8371 2.0335C15.8091 2.1455 15.7753 2.25517 15.7356 2.3625C15.6983 2.46983 15.6539 2.57133 15.6026 2.667C15.5746 2.72533 15.5373 2.77783 15.4906 2.8245C15.4439 2.87117 15.3949 2.90733 15.3436 2.933C15.2923 2.95633 15.2421 2.968 15.1931 2.968ZM13.4571 3.0555C13.6718 2.9015 13.8514 2.74517 13.9961 2.5865C14.1431 2.4255 14.2633 2.26683 14.3566 2.1105C14.4523 1.95417 14.5281 1.80367 14.5841 1.659C14.6424 1.512 14.6903 1.37317 14.7276 1.2425C14.7416 1.19817 14.7544 1.1445 14.7661 1.0815C14.7801 1.01617 14.7929 0.949667 14.8046 0.882C14.8186 0.812 14.8291 0.747834 14.8361 0.6895C14.8454 0.631167 14.8501 0.585667 14.8501 0.553C14.8501 0.518 14.8466 0.492334 14.8396 0.476C14.8326 0.459667 14.8151 0.445667 14.7871 0.434C14.7568 0.42 14.7206 0.408334 14.6786 0.399C14.6389 0.387334 14.6016 0.378 14.5666 0.371V0.3045C14.6063 0.2905 14.6506 0.277667 14.6996 0.266C14.7486 0.252 14.7929 0.245 14.8326 0.245C14.8699 0.245 14.9119 0.254334 14.9586 0.273C15.0053 0.289334 15.0496 0.309167 15.0916 0.3325C15.1359 0.355834 15.1709 0.3815 15.1966 0.4095C15.2246 0.4375 15.2386 0.463167 15.2386 0.4865C15.2386 0.5145 15.2316 0.536667 15.2176 0.553C15.2036 0.569334 15.1873 0.588 15.1686 0.609C15.1499 0.63 15.1359 0.663834 15.1266 0.7105C15.1173 0.750167 15.1068 0.800334 15.0951 0.861C15.0834 0.921667 15.0694 0.985834 15.0531 1.0535C15.0368 1.12117 15.0204 1.18533 15.0041 1.246C14.9808 1.33 14.9481 1.4315 14.9061 1.5505C14.8664 1.6695 14.8116 1.79783 14.7416 1.9355C14.6716 2.07317 14.5818 2.21317 14.4721 2.3555C14.3624 2.4955 14.2283 2.632 14.0696 2.765C13.9133 2.89567 13.7266 3.01467 13.5096 3.122L13.4571 3.0555ZM17.4716 2.296H19.2181V2.3975H17.4716V2.296ZM17.4716 2.8805H19.2181V2.982H17.4716V2.8805ZM17.3701 1.7325V1.5995L17.6711 1.7325H19.2636V1.834H17.6501V3.1465C17.6501 3.15583 17.6384 3.1675 17.6151 3.1815C17.5918 3.19783 17.5614 3.21183 17.5241 3.2235C17.4891 3.23517 17.4518 3.241 17.4121 3.241H17.3701V1.7325ZM19.0606 1.7325H19.0256L19.1761 1.568L19.4946 1.813C19.4829 1.82467 19.4643 1.8375 19.4386 1.8515C19.4153 1.8655 19.3861 1.876 19.3511 1.883V3.1325C19.3511 3.1395 19.3371 3.15117 19.3091 3.1675C19.2834 3.18383 19.2519 3.199 19.2146 3.213C19.1796 3.227 19.1434 3.234 19.1061 3.234H19.0606V1.7325ZM18.1961 0.0210003L18.5986 0.0595002C18.5963 0.0805002 18.5869 0.0991669 18.5706 0.1155C18.5543 0.1295 18.5251 0.14 18.4831 0.147V0.518H18.1961V0.0210003ZM16.9326 0.455H19.2846L19.4666 0.224C19.4666 0.224 19.4771 0.233334 19.4981 0.252C19.5214 0.268334 19.5506 0.2905 19.5856 0.3185C19.6206 0.3465 19.6579 0.376834 19.6976 0.4095C19.7373 0.442167 19.7723 0.473667 19.8026 0.504C19.7979 0.520334 19.7874 0.533167 19.7711 0.5425C19.7571 0.551834 19.7373 0.5565 19.7116 0.5565H16.9606L16.9326 0.455ZM16.7751 1.2565H19.4001L19.5891 1.015C19.5891 1.015 19.6008 1.02433 19.6241 1.043C19.6474 1.06167 19.6778 1.08617 19.7151 1.1165C19.7524 1.1445 19.7909 1.17483 19.8306 1.2075C19.8703 1.24017 19.9076 1.27283 19.9426 1.3055C19.9379 1.32417 19.9274 1.33817 19.9111 1.3475C19.8948 1.35683 19.8738 1.3615 19.8481 1.3615H16.8031L16.7751 1.2565ZM17.5836 0.574C17.7003 0.627667 17.7913 0.684834 17.8566 0.7455C17.9243 0.806167 17.9709 0.866834 17.9966 0.9275C18.0223 0.988167 18.0316 1.043 18.0246 1.092C18.0199 1.141 18.0036 1.1795 17.9756 1.2075C17.9476 1.2355 17.9138 1.25067 17.8741 1.253C17.8344 1.253 17.7936 1.23433 17.7516 1.197C17.7493 1.12933 17.7376 1.05933 17.7166 0.987C17.6956 0.912334 17.6688 0.841167 17.6361 0.7735C17.6058 0.7035 17.5743 0.642834 17.5416 0.5915L17.5836 0.574ZM18.8681 0.5495L19.2811 0.686C19.2741 0.704667 19.2589 0.721 19.2356 0.735C19.2146 0.746667 19.1854 0.751334 19.1481 0.749C19.1108 0.805 19.0641 0.866834 19.0081 0.9345C18.9521 0.999834 18.8926 1.06633 18.8296 1.134C18.7666 1.19933 18.7036 1.26 18.6406 1.316H18.5811C18.6161 1.24367 18.6511 1.16317 18.6861 1.0745C18.7234 0.9835 18.7573 0.8925 18.7876 0.8015C18.8203 0.7105 18.8471 0.6265 18.8681 0.5495ZM21.3776 0.952H22.3331V1.0535H21.3776V0.952ZM21.3776 1.491H22.3331V1.5925H21.3776V1.491ZM21.2586 0.427V0.3045L21.5386 0.427H22.3436V0.532H21.5211V1.694C21.5211 1.70333 21.5106 1.715 21.4896 1.729C21.4686 1.743 21.4406 1.75583 21.4056 1.7675C21.3729 1.77683 21.3379 1.7815 21.3006 1.7815H21.2586V0.427ZM22.1756 0.427H22.1406L22.2806 0.273L22.5921 0.5075C22.5828 0.5215 22.5653 0.534334 22.5396 0.546C22.5139 0.557667 22.4836 0.567 22.4486 0.574V1.659C22.4486 1.666 22.4346 1.6765 22.4066 1.6905C22.3809 1.7045 22.3506 1.71733 22.3156 1.729C22.2806 1.73833 22.2479 1.743 22.2176 1.743H22.1756V0.427ZM21.7206 3.57628e-07L22.1371 0.0700003C22.1231 0.123667 22.0788 0.151667 22.0041 0.154C21.9691 0.200667 21.9259 0.254334 21.8746 0.315C21.8256 0.373334 21.7813 0.425834 21.7416 0.4725H21.6436C21.6553 0.411834 21.6681 0.336 21.6821 0.245C21.6984 0.151667 21.7113 0.0700003 21.7206 3.57628e-07ZM22.5186 1.064C22.7006 1.08267 22.8511 1.11417 22.9701 1.1585C23.0891 1.2005 23.1824 1.2495 23.2501 1.3055C23.3178 1.35917 23.3633 1.41283 23.3866 1.4665C23.4099 1.52017 23.4158 1.568 23.4041 1.61C23.3948 1.652 23.3714 1.68117 23.3341 1.6975C23.2968 1.7115 23.2501 1.70917 23.1941 1.6905C23.1521 1.62283 23.0903 1.55167 23.0086 1.477C22.9293 1.40233 22.8429 1.33233 22.7496 1.267C22.6586 1.19933 22.5723 1.14333 22.4906 1.099L22.5186 1.064ZM20.4046 0.273C20.5563 0.305667 20.6788 0.348834 20.7721 0.4025C20.8654 0.453834 20.9354 0.5075 20.9821 0.5635C21.0288 0.6195 21.0556 0.673167 21.0626 0.7245C21.0719 0.775834 21.0661 0.819 21.0451 0.854C21.0264 0.889 20.9961 0.911167 20.9541 0.9205C20.9144 0.9275 20.8701 0.915834 20.8211 0.8855C20.7978 0.817834 20.7616 0.749 20.7126 0.679C20.6636 0.606667 20.6088 0.537834 20.5481 0.4725C20.4874 0.404834 20.4291 0.3465 20.3731 0.2975L20.4046 0.273ZM20.2541 1.4665C20.3124 1.4455 20.3918 1.41517 20.4921 1.3755C20.5924 1.33583 20.7056 1.29033 20.8316 1.239C20.9599 1.18533 21.0894 1.12933 21.2201 1.071L21.2411 1.113C21.1641 1.17833 21.0661 1.26 20.9471 1.358C20.8304 1.456 20.6928 1.56567 20.5341 1.687C20.5271 1.73367 20.5073 1.76517 20.4746 1.7815L20.2541 1.4665ZM20.2401 2.079H22.9176L23.1101 1.841C23.1101 1.841 23.1218 1.85033 23.1451 1.869C23.1684 1.88767 23.1988 1.911 23.2361 1.939C23.2734 1.967 23.3119 1.9985 23.3516 2.0335C23.3913 2.06617 23.4274 2.09767 23.4601 2.128C23.4531 2.163 23.4216 2.1805 23.3656 2.1805H20.2681L20.2401 2.079ZM21.4791 2.079H21.8466V2.135C21.7323 2.28667 21.5934 2.4255 21.4301 2.5515C21.2691 2.6775 21.0871 2.79067 20.8841 2.891C20.6834 2.989 20.4688 3.073 20.2401 3.143L20.2156 3.0905C20.3953 3.00883 20.5644 2.91433 20.7231 2.807C20.8818 2.69967 21.0253 2.58417 21.1536 2.4605C21.2843 2.3345 21.3928 2.20733 21.4791 2.079ZM22.0111 2.079C22.1138 2.20033 22.2456 2.31233 22.4066 2.415C22.5676 2.51533 22.7438 2.60167 22.9351 2.674C23.1264 2.744 23.3143 2.7965 23.4986 2.8315L23.4951 2.87C23.4391 2.88167 23.3889 2.90967 23.3446 2.954C23.3026 2.99833 23.2734 3.0555 23.2571 3.1255C23.0774 3.0625 22.9059 2.98317 22.7426 2.8875C22.5793 2.7895 22.4311 2.67517 22.2981 2.5445C22.1674 2.41383 22.0566 2.26917 21.9656 2.1105L22.0111 2.079ZM21.6996 1.7325L22.1196 1.7745C22.1173 1.79783 22.1068 1.81883 22.0881 1.8375C22.0694 1.85383 22.0368 1.8655 21.9901 1.8725V3.15C21.9901 3.15933 21.9773 3.171 21.9516 3.185C21.9283 3.199 21.8979 3.21067 21.8606 3.22C21.8256 3.22933 21.7894 3.234 21.7521 3.234H21.6996V1.7325ZM23.0051 0.231L23.3866 0.469C23.3679 0.494667 23.3306 0.499334 23.2746 0.483C23.2209 0.522667 23.1533 0.568167 23.0716 0.6195C22.9923 0.670834 22.9083 0.723334 22.8196 0.777C22.7309 0.830667 22.6493 0.880834 22.5746 0.9275L22.5396 0.882C22.5933 0.819 22.6493 0.749 22.7076 0.672C22.7659 0.592667 22.8208 0.5145 22.8721 0.4375C22.9258 0.358167 22.9701 0.289334 23.0051 0.231ZM24.3456 1.2495H26.0046V1.3545H24.3771L24.3456 1.2495ZM23.7541 2.065H26.4141L26.6101 1.82C26.6101 1.82 26.6218 1.82933 26.6451 1.848C26.6684 1.86667 26.6988 1.89117 26.7361 1.9215C26.7734 1.9495 26.8119 1.981 26.8516 2.016C26.8913 2.04867 26.9286 2.08017 26.9636 2.1105C26.9543 2.14783 26.9216 2.1665 26.8656 2.1665H23.7856L23.7541 2.065ZM25.2171 1.694L25.6301 1.736C25.6231 1.785 25.5823 1.81417 25.5076 1.8235V2.8525C25.5076 2.92483 25.4971 2.98783 25.4761 3.0415C25.4574 3.0975 25.4143 3.14183 25.3466 3.1745C25.2813 3.20717 25.1786 3.23167 25.0386 3.248C25.0293 3.20133 25.0176 3.1605 25.0036 3.1255C24.9896 3.0905 24.9663 3.06133 24.9336 3.038C24.8986 3.01233 24.8519 2.99017 24.7936 2.9715C24.7376 2.95517 24.6583 2.94 24.5556 2.926V2.8735C24.5556 2.8735 24.5719 2.87467 24.6046 2.877C24.6373 2.87933 24.6793 2.88283 24.7306 2.8875C24.7819 2.88983 24.8344 2.89333 24.8881 2.898C24.9418 2.90033 24.9908 2.90267 25.0351 2.905C25.0794 2.90733 25.1098 2.9085 25.1261 2.9085C25.1611 2.9085 25.1844 2.90267 25.1961 2.891C25.2101 2.87933 25.2171 2.86067 25.2171 2.835V1.694ZM24.1566 0.763H26.6871V0.8645H24.1566V0.763ZM24.0971 0.525L24.1531 0.5215C24.2068 0.6685 24.2313 0.798 24.2266 0.91C24.2243 1.022 24.2044 1.11533 24.1671 1.19C24.1298 1.26233 24.0854 1.31717 24.0341 1.3545C23.9851 1.3895 23.9314 1.407 23.8731 1.407C23.8171 1.40467 23.7786 1.38017 23.7576 1.3335C23.7389 1.28917 23.7401 1.24833 23.7611 1.211C23.7821 1.17133 23.8136 1.13983 23.8556 1.1165C23.9279 1.07217 23.9898 0.996334 24.0411 0.889C24.0924 0.779334 24.1111 0.658 24.0971 0.525ZM26.5296 0.763H26.4911L26.6731 0.5845L26.9881 0.8855C26.9764 0.8995 26.9589 0.908834 26.9356 0.9135C26.9146 0.918167 26.8866 0.921667 26.8516 0.924C26.8119 0.963667 26.7618 1.00683 26.7011 1.0535C26.6428 1.10017 26.5809 1.14567 26.5156 1.19C26.4526 1.232 26.3931 1.26933 26.3371 1.302L26.2986 1.2775C26.3266 1.23083 26.3546 1.17717 26.3826 1.1165C26.4129 1.0535 26.4409 0.9905 26.4666 0.9275C26.4946 0.8645 26.5156 0.809667 26.5296 0.763ZM24.3071 0.0630004C24.4378 0.105 24.5416 0.154 24.6186 0.21C24.6979 0.266 24.7551 0.323167 24.7901 0.3815C24.8251 0.4375 24.8426 0.491167 24.8426 0.5425C24.8426 0.5915 24.8298 0.632334 24.8041 0.665C24.7808 0.695334 24.7493 0.712834 24.7096 0.7175C24.6723 0.722167 24.6303 0.707 24.5836 0.672C24.5743 0.606667 24.5521 0.539 24.5171 0.469C24.4844 0.396667 24.4459 0.327834 24.4016 0.2625C24.3573 0.194834 24.3129 0.1365 24.2686 0.0875003L24.3071 0.0630004ZM25.0946 0.00700027C25.2206 0.0583336 25.3186 0.1155 25.3886 0.1785C25.4609 0.239167 25.5111 0.299834 25.5391 0.3605C25.5671 0.418834 25.5788 0.473667 25.5741 0.525C25.5694 0.576334 25.5531 0.617167 25.5251 0.6475C25.4971 0.677834 25.4621 0.694167 25.4201 0.6965C25.3781 0.6965 25.3349 0.676667 25.2906 0.637C25.2906 0.569334 25.2789 0.499334 25.2556 0.427C25.2323 0.352334 25.2019 0.281167 25.1646 0.2135C25.1296 0.1435 25.0923 0.0828337 25.0526 0.0315004L25.0946 0.00700027ZM26.1656 0.0175003L26.5716 0.1645C26.5623 0.1855 26.5471 0.201834 26.5261 0.2135C26.5051 0.222834 26.4748 0.226334 26.4351 0.224C26.3604 0.315 26.2659 0.4165 26.1516 0.5285C26.0373 0.6405 25.9218 0.739667 25.8051 0.826H25.7211C25.7748 0.751334 25.8284 0.667334 25.8821 0.574C25.9381 0.478334 25.9906 0.382667 26.0396 0.287C26.0886 0.189 26.1306 0.0991669 26.1656 0.0175003ZM25.9101 1.2495H25.8681L26.0466 1.085L26.3406 1.3685C26.3266 1.38017 26.3091 1.38833 26.2881 1.393C26.2671 1.39767 26.2368 1.40117 26.1971 1.4035C26.1318 1.44783 26.0524 1.49567 25.9591 1.547C25.8658 1.59833 25.7689 1.64733 25.6686 1.694C25.5706 1.73833 25.4808 1.778 25.3991 1.813L25.3606 1.7815C25.4189 1.73483 25.4831 1.68 25.5531 1.617C25.6254 1.554 25.6931 1.48983 25.7561 1.4245C25.8214 1.35683 25.8728 1.2985 25.9101 1.2495ZM28.5456 0.4935H30.1626V0.595H28.5456V0.4935ZM29.1651 0.0210003L29.5641 0.0560003C29.5618 0.0793336 29.5501 0.100334 29.5291 0.119C29.5104 0.135334 29.4801 0.145834 29.4381 0.1505V0.553H29.1651V0.0210003ZM30.0821 0.4935H30.0436L30.2081 0.3255L30.5056 0.609C30.4939 0.623 30.4776 0.632334 30.4566 0.637C30.4356 0.639334 30.4076 0.641667 30.3726 0.644C30.3283 0.686 30.2711 0.7315 30.2011 0.7805C30.1334 0.8295 30.0728 0.870334 30.0191 0.903L29.9736 0.8785C29.9923 0.827167 30.0121 0.763 30.0331 0.686C30.0564 0.606667 30.0728 0.5425 30.0821 0.4935ZM28.4966 1.0815H29.7321L29.8966 0.8715C29.8966 0.8715 29.9141 0.8855 29.9491 0.9135C29.9841 0.9415 30.0249 0.975334 30.0716 1.015C30.1206 1.05233 30.1649 1.08967 30.2046 1.127C30.1976 1.16433 30.1661 1.183 30.1101 1.183H28.5246L28.4966 1.0815ZM28.3286 1.638H29.9771L30.1521 1.4105C30.1521 1.4105 30.1626 1.41983 30.1836 1.4385C30.2046 1.45483 30.2314 1.477 30.2641 1.505C30.2991 1.533 30.3341 1.56333 30.3691 1.596C30.4064 1.62633 30.4391 1.65433 30.4671 1.68C30.4601 1.71733 30.4298 1.736 30.3761 1.736H28.3566L28.3286 1.638ZM27.3731 0.2415V0.1155L27.6811 0.2415H27.6356V3.157C27.6356 3.164 27.6263 3.1745 27.6076 3.1885C27.5889 3.20483 27.5633 3.21883 27.5306 3.2305C27.5003 3.24217 27.4629 3.248 27.4186 3.248H27.3731V0.2415ZM27.4956 0.2415H28.2166V0.343H27.4956V0.2415ZM28.0416 0.2415H28.0031L28.1641 0.0840003L28.4651 0.371C28.4534 0.387334 28.4348 0.399 28.4091 0.406C28.3834 0.410667 28.3508 0.414167 28.3111 0.4165C28.2761 0.481834 28.2329 0.562334 28.1816 0.658C28.1303 0.753667 28.0766 0.849334 28.0206 0.945C27.9646 1.04067 27.9133 1.12233 27.8666 1.19C27.9739 1.274 28.0591 1.36033 28.1221 1.449C28.1874 1.53767 28.2353 1.6275 28.2656 1.7185C28.2959 1.8095 28.3111 1.89933 28.3111 1.988C28.3134 2.149 28.2819 2.27033 28.2166 2.352C28.1513 2.43367 28.0369 2.47683 27.8736 2.4815C27.8736 2.45583 27.8713 2.429 27.8666 2.401C27.8643 2.373 27.8596 2.3485 27.8526 2.3275C27.8479 2.30417 27.8409 2.28667 27.8316 2.275C27.8199 2.25867 27.8001 2.24583 27.7721 2.2365C27.7464 2.22483 27.7161 2.21667 27.6811 2.212V2.1595C27.7114 2.1595 27.7476 2.1595 27.7896 2.1595C27.8339 2.1595 27.8654 2.1595 27.8841 2.1595C27.9191 2.1595 27.9471 2.1525 27.9681 2.1385C28.0194 2.1105 28.0451 2.03933 28.0451 1.925C28.0451 1.806 28.0253 1.68583 27.9856 1.5645C27.9459 1.44317 27.8771 1.32183 27.7791 1.2005C27.8001 1.14217 27.8223 1.07217 27.8456 0.9905C27.8713 0.9065 27.8958 0.819 27.9191 0.728C27.9448 0.637 27.9681 0.5495 27.9891 0.4655C28.0101 0.3815 28.0276 0.306834 28.0416 0.2415ZM28.5281 0.28H28.5841C28.6448 0.443334 28.6634 0.583334 28.6401 0.7C28.6191 0.816667 28.5806 0.8995 28.5246 0.9485C28.5013 0.9695 28.4721 0.984667 28.4371 0.994C28.4044 1.001 28.3729 0.998667 28.3426 0.987C28.3123 0.975334 28.2889 0.9555 28.2726 0.9275C28.2539 0.8855 28.2539 0.845834 28.2726 0.8085C28.2936 0.768834 28.3228 0.736167 28.3601 0.7105C28.4068 0.6755 28.4476 0.617167 28.4826 0.5355C28.5199 0.4515 28.5351 0.366334 28.5281 0.28ZM29.4661 1.666H29.7286C29.7286 1.687 29.7286 1.708 29.7286 1.729C29.7286 1.74767 29.7286 1.764 29.7286 1.778V2.842C29.7286 2.86533 29.7333 2.88167 29.7426 2.891C29.7543 2.898 29.7811 2.9015 29.8231 2.9015H30.0086C30.0506 2.9015 30.0879 2.9015 30.1206 2.9015C30.1533 2.9015 30.1766 2.9015 30.1906 2.9015C30.2046 2.89917 30.2151 2.89567 30.2221 2.891C30.2291 2.88633 30.2373 2.87583 30.2466 2.8595C30.2583 2.8315 30.2734 2.77317 30.2921 2.6845C30.3131 2.59583 30.3329 2.5025 30.3516 2.4045H30.3971L30.4076 2.8735C30.4473 2.88983 30.4718 2.90733 30.4811 2.926C30.4928 2.94467 30.4986 2.96683 30.4986 2.9925C30.4986 3.0275 30.4846 3.05783 30.4566 3.0835C30.4286 3.10917 30.3784 3.12783 30.3061 3.1395C30.2338 3.1535 30.1299 3.1605 29.9946 3.1605H29.7496C29.6703 3.1605 29.6096 3.15233 29.5676 3.136C29.5256 3.11967 29.4976 3.09283 29.4836 3.0555C29.4719 3.0205 29.4661 2.97267 29.4661 2.912V1.666ZM28.8326 1.673H29.1301C29.1208 1.88533 29.0951 2.07433 29.0531 2.24C29.0134 2.40333 28.9504 2.548 28.8641 2.674C28.7778 2.8 28.6611 2.9085 28.5141 2.9995C28.3694 3.09283 28.1863 3.17333 27.9646 3.241L27.9471 3.1885C28.1268 3.10217 28.2726 3.01 28.3846 2.912C28.4989 2.81167 28.5876 2.70083 28.6506 2.5795C28.7159 2.45817 28.7614 2.32283 28.7871 2.1735C28.8128 2.02417 28.8279 1.85733 28.8326 1.673Z" fill="#8B6B3F"/>
</svg>
